# xmcd
#
# Track frame offsets:
#	150
#	13969
#	26234
#	45436
#	60264
#	79658
#	95404
#	113865
#	128448
#	149304
#	162929
#	178088
#	196232
#	217504
#
# Disc length: 3156 seconds
#
# Revision: 1
# Processed by: cddbd v1.5.2PL0 Copyright (c) Steve Scherf et al.
# Submitted via: audiograbber 1.83.01
#
DISCID=af0c520e
DTITLE=Malkum and Chris - Walk On
DYEAR=1999
DGENRE=Blues
TTITLE0=Walk On
TTITLE1=I Love the Way You Everything
TTITLE2=Staggerlee
TTITLE3=Step It Up and Go
TTITLE4=Sportin' Life
TTITLE5=Rollin' and Tumblin'
TTITLE6=Same Thing
TTITLE7=One Thing for Sure
TTITLE8=It Hurts Me Too
TTITLE9=Jump Little Children
TTITLE10=Cemetery Weather
TTITLE11=Warm It Up to Me
TTITLE12=Key to the Highway
TTITLE13=Stranger Here
EXTD=Buckatoon 001
EXTT0=
EXTT1=
EXTT2=
EXTT3=
EXTT4=
EXTT5=
EXTT6=
EXTT7=
EXTT8=
EXTT9=
EXTT10=
EXTT11=
EXTT12=
EXTT13=
PLAYORDER=
